<svg width="100" height="55" viewBox="0 0 100 55" fill="none" xmlns="http://www.w3.org/2000/svg">
<rect width="100" height="55" fill="#F5F5F5"/>
<g clip-path="url(#clip0_0_1)">
<rect width="375" height="812" transform="translate(-148 -205)" fill="white"/>
<rect width="100" height="55" rx="4" fill="url(#paint0_linear_0_1)"/>
<rect x="4" y="6" width="39" height="17" rx="5" fill="white"/>
<path d="M6.876 29.384H5.5V28.816H10.268V29.192C10.124 29.848 9.97467 30.448 9.82 30.992H11.436V31.328C11.2013 32.4213 10.6973 33.344 9.924 34.096C10.548 34.5547 11.26 34.9573 12.06 35.304L11.684 35.816C10.8147 35.4213 10.0787 34.9787 9.476 34.488C8.788 35.0373 7.91867 35.4907 6.868 35.848L6.532 35.312C7.52933 34.976 8.35333 34.5653 9.004 34.08C8.25733 33.3707 7.70533 32.5813 7.348 31.712C7.08133 33.4933 6.396 34.848 5.292 35.776L4.852 35.384C6.18 34.2907 6.85467 32.536 6.876 30.12V29.384ZM9.444 33.712C10.132 33.0827 10.596 32.3493 10.836 31.512H9.1C9.276 30.984 9.45467 30.2747 9.636 29.384H7.468V30.304L7.46 30.496C7.748 31.7493 8.40933 32.8213 9.444 33.712ZM15.46 29.064V34.96H14.9V34.424H13.716V35.152H13.156V29.064H15.46ZM13.716 33.888H14.9V31.96H13.716V33.888ZM13.716 31.424H14.9V29.592H13.716V31.424ZM16.612 31.448C17.1187 32.216 17.5 32.872 17.756 33.416L17.276 33.752C16.9827 33.128 16.604 32.4587 16.14 31.744L16.612 31.448ZM17.036 35.72L16.916 35.16C17.5347 35.1813 17.9773 35.192 18.244 35.192C18.4787 35.192 18.596 35.0667 18.596 34.816V30.488H15.828V29.936H18.596V28.528H19.18V29.936H20.164V30.488H19.18V34.96C19.18 35.4667 18.932 35.72 18.436 35.72H17.036ZM24.732 29.816C24.924 30.152 25.1133 30.5467 25.3 31H26.084C26.292 30.6267 26.4813 30.2027 26.652 29.728L27.196 29.92C27.0467 30.32 26.8787 30.68 26.692 31H27.988V31.552H23.524V31H24.748C24.5773 30.6267 24.4147 30.3067 24.26 30.04L24.732 29.816ZM25.788 28.416C25.8733 28.6293 25.9613 28.8827 26.052 29.176H27.844V29.704H23.708V29.176H25.468C25.3827 28.9467 25.2893 28.7253 25.188 28.512L25.788 28.416ZM21.1 35.728L20.98 35.168C21.268 35.1893 21.476 35.2 21.604 35.2C21.812 35.2 21.916 35.0853 21.916 34.856V32.92C21.7027 33.0053 21.372 33.1227 20.924 33.272L20.78 32.696C21.1427 32.6053 21.5213 32.488 21.916 32.344V30.552H20.94V30H21.916V28.488H22.508V30H23.172V30.552H22.508V32.096C22.716 31.9947 22.9453 31.8773 23.196 31.744V32.328C22.988 32.44 22.7587 32.552 22.508 32.664V35C22.508 35.4853 22.2733 35.728 21.804 35.728H21.1ZM25.636 31.84C25.556 32.0533 25.468 32.2613 25.372 32.464H28.116V33.024H27.236C27.1133 33.6213 26.8653 34.1227 26.492 34.528C27.052 34.7893 27.5773 35.0613 28.068 35.344L27.756 35.808C27.276 35.5147 26.7187 35.216 26.084 34.912C25.5453 35.3013 24.7053 35.608 23.564 35.832L23.34 35.312C24.284 35.1413 24.9987 34.9147 25.484 34.632C25.068 34.44 24.5453 34.2187 23.916 33.968C24.14 33.6267 24.332 33.312 24.492 33.024H23.42V32.464H24.788C24.8947 32.2293 24.9933 32 25.084 31.776L25.636 31.84ZM25.076 33.024C24.9213 33.2853 24.7693 33.5227 24.62 33.736C25.084 33.912 25.532 34.096 25.964 34.288C26.3213 33.952 26.564 33.5307 26.692 33.024H25.076ZM33.708 28.496H34.292V29.904H35.884V33.528H35.324V33.12H34.292V35.8H33.708V33.12H32.708V33.528H32.156V29.904H33.708V28.496ZM32.708 32.584H33.708V30.448H32.708V32.584ZM34.292 32.584H35.324V30.448H34.292V32.584ZM28.94 29.064C29.9427 28.968 30.812 28.7867 31.548 28.52L31.748 29.056C31.3853 29.168 31.0387 29.2613 30.708 29.336V30.656H31.74V31.208H30.708V31.608C31.092 31.9707 31.4947 32.3947 31.916 32.88L31.596 33.36C31.2547 32.848 30.9587 32.432 30.708 32.112V35.832H30.148V32.152C29.8547 32.9413 29.4733 33.6427 29.004 34.256L28.764 33.656C29.3827 32.9413 29.8253 32.1253 30.092 31.208H28.916V30.656H30.148V29.448C29.8547 29.496 29.4893 29.5467 29.052 29.6L28.94 29.064ZM39.292 32.696H43.364V33.168C43.092 33.728 42.6573 34.216 42.06 34.632C42.668 34.9253 43.3853 35.1707 44.212 35.368L43.9 35.848C42.956 35.608 42.1693 35.3067 41.54 34.944C40.8627 35.312 40.0307 35.608 39.044 35.832L38.764 35.336C39.644 35.1547 40.4013 34.9173 41.036 34.624C40.4653 34.2027 40.0627 33.728 39.828 33.2H39.292V32.696ZM40.364 33.2C40.62 33.632 41.0147 34.0133 41.548 34.344C42.076 34.0133 42.4813 33.632 42.764 33.2H40.364ZM38.204 31.8V29.096H40.86C40.78 28.904 40.6733 28.696 40.54 28.472L41.124 28.368C41.2413 28.6133 41.3427 28.856 41.428 29.096H43.932V29.64H38.78V31.704C38.7373 33.4107 38.3267 34.7733 37.548 35.792L37.108 35.4C37.6893 34.6533 38.036 33.6987 38.148 32.536C37.7853 32.8453 37.4067 33.1227 37.012 33.368L36.852 32.808C37.3427 32.5413 37.7907 32.2373 38.196 31.896L38.204 31.8ZM37.356 29.696C37.6013 30.1547 37.8227 30.664 38.02 31.224L37.532 31.424C37.3133 30.8053 37.092 30.296 36.868 29.896L37.356 29.696ZM40.14 30.208H42.772V31.416C42.772 31.6187 42.8733 31.72 43.076 31.72H43.924V32.224H42.948C42.468 32.224 42.228 31.992 42.228 31.528V30.704H40.684V30.856C40.684 31.5387 40.308 32.0693 39.556 32.448L39.18 32.032C39.82 31.7653 40.14 31.392 40.14 30.912V30.208ZM51.476 30.816V35.728H50.9V35.248H46.164V35.736H45.588V30.816H51.476ZM46.164 34.696H48.252V33.248H46.164V34.696ZM48.812 34.696H50.9V33.248H48.812V34.696ZM46.164 32.728H48.252V31.376H46.164V32.728ZM48.812 31.376V32.728H50.9V31.376H48.812ZM44.98 29.248H46.852V28.44H47.444V29.248H49.556V28.44H50.148V29.248H52.02V29.776H50.148V30.464H49.556V29.776H47.444V30.464H46.852V29.776H44.98V29.248ZM59.756 29.472V35.68H59.196V35.152H57.756V35.68H57.196V29.472H59.756ZM57.756 34.592H59.196V30.032H57.756V34.592ZM54.22 28.488H54.812V29.88H56.452C56.452 32.4987 56.412 34.1173 56.332 34.736C56.252 35.3973 55.8547 35.728 55.14 35.728L54.532 35.696L54.388 35.168C54.7293 35.1893 54.9533 35.2 55.06 35.2C55.4813 35.2 55.724 34.9707 55.788 34.512C55.836 34.064 55.868 32.7067 55.884 30.44H54.812V30.592C54.7853 32.9867 54.2627 34.7387 53.244 35.848L52.78 35.432C53.724 34.4347 54.204 32.8213 54.22 30.592V30.44H52.948V29.88H54.22V28.488ZM7.852 42.464H9.548V41.784H8.14V39.784H11.54V41.784H10.124V42.464H11.812V44.624H10.124V45.84L11.188 45.688C11.124 45.528 11.0227 45.288 10.884 44.968L11.404 44.824C11.6867 45.4533 11.9133 46.056 12.084 46.632L11.58 46.824C11.5373 46.68 11.468 46.4693 11.372 46.192C10.3427 46.352 9.14267 46.5013 7.772 46.64L7.636 46.088C8.10533 46.0507 8.74267 45.992 9.548 45.912V44.624H7.852V42.464ZM11.284 44.128V42.96H10.124V44.128H11.284ZM9.548 44.128V42.96H8.372V44.128H9.548ZM5.78 42.096L5.62 43.392H7.324C7.324 44.6987 7.28133 45.5733 7.196 46.016C7.1 46.4693 6.70267 46.712 6.004 46.744C5.87067 46.744 5.66533 46.7333 5.388 46.712L5.252 46.184C5.52933 46.2053 5.73733 46.216 5.876 46.216C6.324 46.216 6.58533 46.0693 6.66 45.776C6.72933 45.4453 6.764 44.8187 6.764 43.896H5.036L5.284 41.576H6.684V40.32H5.108V39.784H7.228V42.096H5.78ZM11.012 41.296V40.264H8.676V41.296H11.012ZM13.788 42.488C13.548 42.8347 13.2787 43.1787 12.98 43.52L12.812 42.944C13.644 41.92 14.244 40.7493 14.612 39.432L15.132 39.672C14.9187 40.3547 14.66 40.984 14.356 41.56V46.808H13.788V42.488ZM14.996 40.832H17.116V39.456H17.684V40.832H19.868V41.392H18.18C18.5587 42.7253 19.2253 43.9013 20.18 44.92L19.804 45.392C18.8227 44.2027 18.1427 42.8693 17.764 41.392H17.684V44.6H18.924V45.152H17.684V46.8H17.116V45.152H15.892V44.6H17.116V41.392H17.028C16.6227 43.056 15.9267 44.416 14.94 45.472L14.644 44.984C15.556 44.056 16.212 42.8587 16.612 41.392H14.996V40.832ZM22.236 41.8V42.504C22.1933 44.2693 21.8467 45.6773 21.196 46.728L20.796 46.304C21.34 45.392 21.636 44.1253 21.684 42.504V40C23.7693 39.984 25.6707 39.8213 27.388 39.512L27.676 40.032C26.06 40.304 24.2467 40.456 22.236 40.488V41.272H24.908C24.9453 41.0373 24.9773 40.7947 25.004 40.544L25.58 40.616C25.5587 40.8027 25.5293 41.0213 25.492 41.272H28.028V41.8H25.404C25.3613 42.056 25.3053 42.3093 25.236 42.56H27.292V45.28H26.74V43.088H23.58V45.312H23.028V42.56H24.652C24.7213 42.288 24.7773 42.0347 24.82 41.8H22.236ZM25.62 45.096C26.516 45.4373 27.324 45.84 28.044 46.304L27.724 46.792C26.94 46.2587 26.1427 45.8373 25.332 45.528L25.62 45.096ZM25.588 43.448C25.492 44.3973 25.204 45.12 24.724 45.616C24.2227 46.1173 23.4653 46.512 22.452 46.8L22.14 46.272C23.0893 46.032 23.7853 45.6987 24.228 45.272C24.6707 44.8453 24.9373 44.224 25.028 43.408L25.588 43.448ZM29.884 44.88C30.2147 45.1147 30.5213 45.3813 30.804 45.68C31.0653 45.9467 31.2947 46.2213 31.492 46.504L31.092 46.84C30.916 46.5893 30.6893 46.3173 30.412 46.024C30.1347 45.72 29.8387 45.4507 29.524 45.216L29.884 44.88ZM40.196 39.792H44.132V40.336H42.508C42.4707 40.6133 42.4173 40.912 42.348 41.232H43.86V45H43.316V41.744H41.004V45H40.46V41.232H41.796C41.86 40.9493 41.908 40.6507 41.94 40.336H40.196V39.792ZM42.724 45C43.316 45.464 43.812 45.928 44.212 46.392L43.812 46.792C43.46 46.344 42.9747 45.8667 42.356 45.36L42.724 45ZM41.86 42.2H42.42V43.64C42.3987 44.4933 42.2067 45.1733 41.844 45.68C41.492 46.1493 40.9213 46.52 40.132 46.792L39.82 46.304C40.588 46.0533 41.1213 45.7227 41.42 45.312C41.6973 44.8693 41.844 44.312 41.86 43.64V42.2ZM37.708 40.8C37.948 41.0293 38.1453 41.2293 38.3 41.4C38.5827 41.0907 38.8467 40.7333 39.092 40.328H37.076V39.792H39.708V40.248C39.388 40.824 39.0307 41.3307 38.636 41.768C38.7587 41.912 38.8893 42.072 39.028 42.248H39.94V42.6C39.8173 43.208 39.6627 43.696 39.476 44.064L39.004 43.88C39.164 43.544 39.2947 43.1787 39.396 42.784H38.548V46.128C38.548 46.5493 38.3453 46.76 37.94 46.76H37.172L37.06 46.24C37.3267 46.2667 37.5587 46.28 37.756 46.28C37.9213 46.28 38.004 46.184 38.004 45.992V42.784H36.852V42.248H38.404C38.0787 41.864 37.7053 41.4693 37.284 41.064L37.708 40.8ZM49.62 44.504C49.5187 44.8133 49.3907 45.0987 49.236 45.36C48.836 45.9947 48.1773 46.488 47.26 46.84L46.956 46.352C47.8627 45.9947 48.4893 45.536 48.836 44.976C48.932 44.8 49.0253 44.5787 49.116 44.312H47.132V43.768H49.26C49.3187 43.4533 49.356 43.0773 49.372 42.64V42.344H48.236C48.06 42.76 47.8733 43.128 47.676 43.448L47.22 43.16C47.6147 42.5307 47.8973 41.8507 48.068 41.12L48.588 41.232C48.5453 41.408 48.492 41.5973 48.428 41.8H51.532V42.344H49.892V42.64C49.8867 43.0453 49.8547 43.4213 49.796 43.768H51.94V44.312H50.044C50.492 45.2667 51.2147 45.9253 52.212 46.288L51.908 46.776C50.8893 46.3707 50.1267 45.6133 49.62 44.504ZM46.18 42.704V40.232H48.86C48.7427 39.9653 48.612 39.72 48.468 39.496L49.052 39.4C49.1853 39.6347 49.3133 39.912 49.436 40.232H51.916V40.792H46.756V42.704C46.724 44.384 46.3693 45.736 45.692 46.76L45.26 46.376C45.7347 45.6613 46.0253 44.7227 46.132 43.56C45.7853 43.8693 45.3987 44.1627 44.972 44.44L44.812 43.88C45.276 43.624 45.7293 43.3093 46.172 42.936L46.18 42.704ZM45.324 40.704C45.612 41.2053 45.8493 41.7253 46.036 42.264L45.572 42.464C45.3533 41.872 45.1133 41.3493 44.852 40.896L45.324 40.704ZM57.5 44.184C57.2707 44.7333 56.9107 45.192 56.42 45.56L56.076 45.144C56.5933 44.744 56.94 44.24 57.116 43.632L57.188 43.32H55.804V46.776H55.26V42.792H57.26C57.2867 42.5573 57.3053 42.2747 57.316 41.944H55.052V41.416H59.932V41.944H57.844C57.8387 42.2427 57.8227 42.5253 57.796 42.792H59.708V45.944C59.708 46.4667 59.4707 46.728 58.996 46.728H58.172L58.028 46.184L58.804 46.208C59.044 46.208 59.164 46.08 59.164 45.824V43.32H57.724L57.644 43.72C58.1027 44.088 58.516 44.5067 58.884 44.976L58.572 45.456C58.2147 44.944 57.8573 44.52 57.5 44.184ZM54.172 42.792V40.08H56.852C56.7667 39.8613 56.6707 39.6613 56.564 39.48L57.148 39.384C57.244 39.592 57.34 39.824 57.436 40.08H59.988V40.624H54.732V42.688C54.7 44.3733 54.356 45.7253 53.7 46.744L53.268 46.368C53.7427 45.6427 54.028 44.6933 54.124 43.52C53.7773 43.808 53.4013 44.0693 52.996 44.304L52.836 43.752C53.3053 43.512 53.748 43.2267 54.164 42.896L54.172 42.792ZM53.332 40.696C53.6093 41.1867 53.8413 41.696 54.028 42.224L53.532 42.424C53.3187 41.832 53.0867 41.3253 52.836 40.904L53.332 40.696Z" fill="#797979"/>
<path d="M13.588 15.544H19.696V16.252C19.288 17.092 18.636 17.824 17.74 18.448C18.652 18.888 19.728 19.256 20.968 19.552L20.5 20.272C19.084 19.912 17.904 19.46 16.96 18.916C15.944 19.468 14.696 19.912 13.216 20.248L12.796 19.504C14.116 19.232 15.252 18.876 16.204 18.436C15.348 17.804 14.744 17.092 14.392 16.3H13.588V15.544ZM15.196 16.3C15.58 16.948 16.172 17.52 16.972 18.016C17.764 17.52 18.372 16.948 18.796 16.3H15.196ZM11.956 14.2V10.144H15.94C15.82 9.856 15.66 9.544 15.46 9.208L16.336 9.052C16.512 9.42 16.664 9.784 16.792 10.144H20.548V10.96H12.82V14.056C12.756 16.616 12.14 18.66 10.972 20.188L10.312 19.6C11.184 18.48 11.704 17.048 11.872 15.304C11.328 15.768 10.76 16.184 10.168 16.552L9.928 15.712C10.664 15.312 11.336 14.856 11.944 14.344L11.956 14.2ZM10.684 11.044C11.052 11.732 11.384 12.496 11.68 13.336L10.948 13.636C10.62 12.708 10.288 11.944 9.952 11.344L10.684 11.044ZM14.86 11.812H18.808V13.624C18.808 13.928 18.96 14.08 19.264 14.08H20.536V14.836H19.072C18.352 14.836 17.992 14.488 17.992 13.792V12.556H15.676V12.784C15.676 13.808 15.112 14.604 13.984 15.172L13.42 14.548C14.38 14.148 14.86 13.588 14.86 12.868V11.812ZM36.064 12.724V20.092H35.2V19.372H28.096V20.104H27.232V12.724H36.064ZM28.096 18.544H31.228V16.372H28.096V18.544ZM32.068 18.544H35.2V16.372H32.068V18.544ZM28.096 15.592H31.228V13.564H28.096V15.592ZM32.068 13.564V15.592H35.2V13.564H32.068ZM26.32 10.372H29.128V9.16H30.016V10.372H33.184V9.16H34.072V10.372H36.88V11.164H34.072V12.196H33.184V11.164H30.016V12.196H29.128V11.164H26.32V10.372Z" fill="#92CECB"/>
<g filter="url(#filter0_d_0_1)">
<path d="M83.4443 13.3039L92.1303 18.2591L80.7335 38.2369L72.0475 33.2817L83.4443 13.3039Z" fill="#C8FFDE"/>
<rect x="71.1789" y="32.7862" width="12" height="2" rx="1" transform="rotate(29.7038 71.1789 32.7862)" fill="#A8F5F1"/>
<rect x="81.8296" y="10.0802" width="16" height="2" rx="1" transform="rotate(29.7038 81.8296 10.0802)" fill="#A8F5F1"/>
<rect x="88.7726" y="5.98206" width="8" height="3" rx="1" transform="rotate(29.7038 88.7726 5.98206)" fill="#A8F5F1"/>
<rect x="90.0143" y="7.84169" width="4" height="7" rx="1" transform="rotate(29.7038 90.0143 7.84169)" fill="#A8F5F1"/>
<path d="M75.5219 35.2638L77.2591 36.2548L71.3129 46.678L69.9488 47.0511L69.5757 45.687L75.5219 35.2638Z" fill="#A8F5F1"/>
</g>
</g>
<defs>
<filter id="filter0_d_0_1" x="65.5757" y="6.34599" width="33.7875" height="48.7051" filterUnits="userSpaceOnUse" color-interpolation-filters="sRGB">
<feFlood flood-opacity="0" result="BackgroundImageFix"/>
<feColorMatrix in="SourceAlpha" type="matrix" values="0 0 0 0 0 0 0 0 0 0 0 0 0 0 0 0 0 0 127 0" result="hardAlpha"/>
<feOffset dy="4"/>
<feGaussianBlur stdDeviation="2"/>
<feComposite in2="hardAlpha" operator="out"/>
<feColorMatrix type="matrix" values="0 0 0 0 0.358524 0 0 0 0 0.804167 0 0 0 0 0.777428 0 0 0 0.41 0"/>
<feBlend mode="normal" in2="BackgroundImageFix" result="effect1_dropShadow_0_1"/>
<feBlend mode="normal" in="SourceGraphic" in2="effect1_dropShadow_0_1" result="shape"/>
</filter>
<linearGradient id="paint0_linear_0_1" x1="100" y1="-6.09593e-06" x2="-12.5" y2="59.5" gradientUnits="userSpaceOnUse">
<stop stop-color="#C8F8DB"/>
<stop offset="1" stop-color="#C8F8DB" stop-opacity="0.1"/>
</linearGradient>
<clipPath id="clip0_0_1">
<rect width="375" height="812" fill="white" transform="translate(-148 -205)"/>
</clipPath>
</defs>
</svg>
