<svg width="100" height="55" viewBox="0 0 100 55" fill="none" xmlns="http://www.w3.org/2000/svg">
<rect width="100" height="55" fill="#F5F5F5"/>
<g clip-path="url(#clip0_0_1)">
<rect width="375" height="812" transform="translate(-148 -144)" fill="white"/>
<rect width="100" height="55" rx="4" fill="url(#paint0_linear_0_1)"/>
<g filter="url(#filter0_d_0_1)">
<path d="M65 11V20.1633C65 25.8842 69.6377 30.5219 75.3585 30.5219V30.5219C81.0794 30.5219 85.7171 25.8842 85.7171 20.1633V11" stroke="#CCC8FF" stroke-width="4" stroke-linecap="round"/>
<path d="M75.1593 30.7211C75.1593 50.0437 93.6852 49.8445 93.6852 20.9601" stroke="#CCC8FF" stroke-width="4"/>
<circle cx="93.6852" cy="18.5697" r="3.18724" fill="#9EA7FB"/>
</g>
<rect x="4" y="6" width="39" height="17" rx="5" fill="white"/>
<path d="M11.9 29.376V30.952H11.348V29.896H8.156V30.984H7.612V29.376H9.452C9.36133 29.0933 9.244 28.8 9.1 28.496L9.684 28.4C9.80133 28.6773 9.916 29.0027 10.028 29.376H11.9ZM9.66 30.448C9.56933 30.8267 9.45467 31.24 9.316 31.688H12.156V32.24H11.196C11.068 33.04 10.7907 33.7067 10.364 34.24C11.052 34.6187 11.6573 34.9893 12.18 35.352L11.788 35.808C11.324 35.472 10.724 35.0853 9.988 34.648C9.428 35.144 8.52667 35.5387 7.284 35.832L7.052 35.288C8.10267 35.048 8.9 34.728 9.444 34.328C8.98 34.0613 8.484 33.7893 7.956 33.512C8.164 33.128 8.35867 32.704 8.54 32.24H7.42V31.688H8.732C8.86 31.288 8.98267 30.8587 9.1 30.4L9.66 30.448ZM9.124 32.24C8.95333 32.688 8.79067 33.0507 8.636 33.328L9.852 33.96C10.2467 33.512 10.5107 32.9387 10.644 32.24H9.124ZM5.092 35.728L4.972 35.168C5.24933 35.1893 5.44933 35.2 5.572 35.2C5.76933 35.2 5.868 35.096 5.868 34.888V32.96C5.52133 33.088 5.204 33.1973 4.916 33.288L4.772 32.712C5.13467 32.6267 5.5 32.5173 5.868 32.384V30.552H4.932V30H5.868V28.488H6.46V30H7.212V30.552H6.46V32.152C6.71067 32.04 6.95867 31.92 7.204 31.792V32.376C7.03867 32.456 6.79067 32.5707 6.46 32.72V35.032C6.46 35.496 6.23067 35.728 5.772 35.728H5.092ZM15.46 29.064V34.96H14.9V34.424H13.716V35.152H13.156V29.064H15.46ZM13.716 33.888H14.9V31.96H13.716V33.888ZM13.716 31.424H14.9V29.592H13.716V31.424ZM16.612 31.448C17.1187 32.216 17.5 32.872 17.756 33.416L17.276 33.752C16.9827 33.128 16.604 32.4587 16.14 31.744L16.612 31.448ZM17.036 35.72L16.916 35.16C17.5347 35.1813 17.9773 35.192 18.244 35.192C18.4787 35.192 18.596 35.0667 18.596 34.816V30.488H15.828V29.936H18.596V28.528H19.18V29.936H20.164V30.488H19.18V34.96C19.18 35.4667 18.932 35.72 18.436 35.72H17.036ZM23.748 34.744C22.9587 35.0427 22.0493 35.2853 21.02 35.472L20.948 34.912C22.036 34.736 22.9693 34.4987 23.748 34.2V34.744ZM22.812 28.664C22.4227 29.672 22.012 30.5013 21.58 31.152C21.9693 31.0987 22.3213 31.04 22.636 30.976L23.076 30.08L23.588 30.28C22.8893 31.656 22.316 32.6213 21.868 33.176C22.46 33.0533 23.036 32.8907 23.596 32.688V33.208C22.7907 33.4853 21.9907 33.6827 21.196 33.8L21.044 33.272C21.1507 33.2293 21.236 33.176 21.3 33.112C21.588 32.792 21.94 32.256 22.356 31.504C21.7693 31.6107 21.3267 31.6853 21.028 31.728L20.892 31.2C20.9773 31.168 21.0573 31.0987 21.132 30.992C21.5747 30.24 21.9533 29.3947 22.268 28.456L22.812 28.664ZM27.508 32.512V35.704H26.94V35.264H24.764V35.704H24.212V32.512H27.508ZM24.764 34.712H26.94V33.056H24.764V34.712ZM26.132 28.512C26.6067 29.4987 27.308 30.312 28.236 30.952L27.9 31.44C27.0467 30.8267 26.3667 30.0293 25.86 29.048C25.284 30.0507 24.5987 30.8587 23.804 31.472L23.468 31C24.3267 30.3547 25.0333 29.5253 25.588 28.512H26.132ZM24.548 30.976H27.124V31.512H24.548V30.976ZM35.756 29.176V30.688H35.18V29.72H29.828V30.696H29.252V29.176H32.204C32.0813 28.9147 31.964 28.696 31.852 28.52L32.468 28.424C32.5587 28.6053 32.6653 28.856 32.788 29.176H35.756ZM29.132 31.376H31.356C31.3667 31.2267 31.3773 30.9973 31.388 30.688V30.192H31.972V30.688C31.9613 30.9973 31.9507 31.2267 31.94 31.376H35.916V31.928H33.348V33.872C34.0093 33.424 34.5533 32.8933 34.98 32.28L35.404 32.6C34.86 33.3787 34.1747 34.024 33.348 34.536V34.776C33.348 35.0053 33.476 35.12 33.732 35.12H35.068C35.228 35.12 35.34 35.072 35.404 34.976C35.4787 34.8747 35.532 34.5413 35.564 33.976L36.1 34.144C36.052 34.8587 35.9507 35.2933 35.796 35.448C35.6627 35.5813 35.4573 35.648 35.18 35.648H33.564C33.0413 35.648 32.78 35.3973 32.78 34.896V34.864C32.332 35.088 31.836 35.2907 31.292 35.472L31.06 34.952C31.7107 34.744 32.284 34.5013 32.78 34.224V31.928H31.884C31.772 32.7493 31.5667 33.448 31.268 34.024C30.8413 34.7973 30.1453 35.4 29.18 35.832L28.868 35.344C29.8067 34.9013 30.4627 34.3227 30.836 33.608C31.0493 33.1387 31.204 32.5787 31.3 31.928H29.132V31.376ZM33.324 30.104C33.884 30.328 34.3853 30.5947 34.828 30.904L34.532 31.36C34.0413 31.008 33.5427 30.728 33.036 30.52L33.324 30.104ZM41.06 28.6C40.9693 29.0427 40.8707 29.4267 40.764 29.752H43.868C43.868 32.424 43.828 34.072 43.748 34.696C43.6627 35.4 43.2307 35.752 42.452 35.752C42.34 35.752 42.14 35.744 41.852 35.728L41.716 35.208C42.0573 35.2293 42.276 35.24 42.372 35.24C42.8627 35.24 43.1427 34.984 43.212 34.472C43.2653 34.0453 43.3 32.6587 43.316 30.312H42.772C42.596 31.656 42.3533 32.712 42.044 33.48C41.6707 34.3227 41.124 35.072 40.404 35.728L40.052 35.272C40.7133 34.6747 41.2147 34.0027 41.556 33.256C41.8653 32.5147 42.0973 31.5333 42.252 30.312H41.628C41.308 32.0507 40.7 33.3173 39.804 34.112L39.428 33.68C40.2493 32.9813 40.812 31.8587 41.116 30.312H40.564C40.3507 30.8187 40.108 31.24 39.836 31.576L39.412 31.216C39.924 30.576 40.292 29.656 40.516 28.456L41.06 28.6ZM37.62 30.696C37.524 31.128 37.4173 31.5173 37.3 31.864L36.796 31.72C37.0947 30.8827 37.2653 29.992 37.308 29.048L37.812 29.088C37.796 29.4453 37.764 29.7947 37.716 30.136H38.276V28.472H38.836V30.136H39.508V30.696H38.836V32.616C39.0547 32.5147 39.268 32.408 39.476 32.296V32.84C39.3373 32.9147 39.124 33.0213 38.836 33.16V35.8H38.276V33.4C37.8227 33.576 37.404 33.7253 37.02 33.848L36.884 33.288C37.364 33.176 37.828 33.032 38.276 32.856V30.696H37.62ZM45.788 31.488C45.548 31.8347 45.2787 32.1787 44.98 32.52L44.812 31.944C45.644 30.92 46.244 29.7493 46.612 28.432L47.132 28.672C46.9187 29.3547 46.66 29.984 46.356 30.56V35.808H45.788V31.488ZM46.996 29.832H49.116V28.456H49.684V29.832H51.868V30.392H50.18C50.5587 31.7253 51.2253 32.9013 52.18 33.92L51.804 34.392C50.8227 33.2027 50.1427 31.8693 49.764 30.392H49.684V33.6H50.924V34.152H49.684V35.8H49.116V34.152H47.892V33.6H49.116V30.392H49.028C48.6227 32.056 47.9267 33.416 46.94 34.472L46.644 33.984C47.556 33.056 48.212 31.8587 48.612 30.392H46.996V29.832ZM52.98 30.032H53.98V28.472H54.548V30.032H55.372V30.584H54.548V30.992C54.868 31.344 55.196 31.744 55.532 32.192L55.204 32.68C54.916 32.168 54.6973 31.7947 54.548 31.56V35.76H53.98V31.848C53.7187 32.6533 53.3933 33.3733 53.004 34.008L52.756 33.376C53.3267 32.5547 53.732 31.624 53.972 30.584H52.98V30.032ZM56.548 30.8C56.2493 31.1147 55.932 31.392 55.596 31.632L55.284 31.144C56.2387 30.456 56.9693 29.568 57.476 28.48H58.004C58.436 29.488 59.1747 30.3707 60.22 31.128L59.908 31.616C59.556 31.36 59.2467 31.096 58.98 30.824V31.312H56.548V30.8ZM58.94 30.784C58.4333 30.2613 58.0333 29.6827 57.74 29.048C57.3933 29.72 57.0013 30.2987 56.564 30.784H58.94ZM55.468 35H58.236C58.5667 34.1413 58.8547 33.0907 59.1 31.848L59.652 31.992C59.4333 33.0853 59.1507 34.088 58.804 35H60.052V35.56H55.468V35ZM56.364 32.064C56.5827 32.7147 56.7773 33.4907 56.948 34.392L56.444 34.528C56.2893 33.744 56.0973 32.9787 55.868 32.232L56.364 32.064ZM57.596 31.776C57.804 32.4213 57.988 33.1653 58.148 34.008L57.62 34.144C57.4867 33.3973 57.3133 32.6613 57.1 31.936L57.596 31.776ZM7.3 42.344V43.216H10.476V42.344H7.3ZM10.476 43.72H7.3V44.568H10.476V43.72ZM10.476 45.072H7.3V46.784H6.756V42.6C6.308 43.1653 5.79333 43.68 5.212 44.144L4.836 43.656C5.844 42.856 6.62267 41.9413 7.172 40.912H5.052V40.352H7.436C7.58 40.0213 7.69733 39.7093 7.788 39.416L8.372 39.488C8.25467 39.856 8.15333 40.144 8.068 40.352H12.044V40.912H7.828C7.64667 41.28 7.47333 41.5893 7.308 41.84H11.02V46.16C11.02 46.5493 10.796 46.752 10.348 46.768H9.452L9.308 46.24C9.71333 46.2613 9.99867 46.272 10.164 46.272C10.372 46.272 10.476 46.176 10.476 45.984V45.072ZM17.972 46.752L17.828 46.216L18.708 46.232C19.012 46.232 19.164 46.056 19.164 45.704V40.488H16.06V39.928H19.748V45.856C19.748 46.4533 19.4413 46.752 18.828 46.752H17.972ZM13.252 40.792H13.836V46.808H13.252V40.792ZM15.044 41.944H17.924V44.952H15.044V41.944ZM17.34 44.4V42.496H15.628V44.4H17.34ZM14.444 39.4C14.8333 39.864 15.164 40.3467 15.436 40.848L14.924 41.112C14.636 40.584 14.2973 40.0907 13.908 39.632L14.444 39.4ZM26.38 46.128C27.0467 46.128 27.6467 46.1173 28.18 46.096L28.084 46.672H26.508C24.5933 46.672 23.396 46.568 22.916 46.36C22.5 46.184 22.124 45.8613 21.788 45.392C21.644 45.904 21.444 46.376 21.188 46.808L20.772 46.44C21.1987 45.7147 21.4333 44.896 21.476 43.984L21.988 44.048C21.972 44.336 21.9453 44.5893 21.908 44.808C22.116 45.1333 22.3453 45.3893 22.596 45.576V43.632H21.012V43.104H24.404V43.632H23.108V44.48H24.204V44.992H23.108V45.864C23.156 45.88 23.196 45.896 23.228 45.912C23.692 46.056 24.7427 46.128 26.38 46.128ZM21.372 39.776H24.1V42.568H21.372V39.776ZM23.54 42.088V41.408H21.932V42.088H23.54ZM21.932 40.96H23.54V40.256H21.932V40.96ZM24.516 39.784H27.972V40.312H26.532C26.5053 40.5467 26.4707 40.76 26.428 40.952H27.748V44.184H27.212V41.448H25.276V44.184H24.764V40.952H25.908C25.9507 40.7707 25.9853 40.5573 26.012 40.312H24.516V39.784ZM26.82 44.208C27.316 44.592 27.732 44.976 28.068 45.36L27.66 45.76C27.3507 45.376 26.9427 44.9813 26.436 44.576L26.82 44.208ZM25.98 41.824H26.508V42.952C26.492 43.704 26.3453 44.312 26.068 44.776C25.8013 45.192 25.3587 45.5227 24.74 45.768L24.428 45.272C24.9987 45.064 25.4013 44.7787 25.636 44.416C25.8493 44.032 25.964 43.544 25.98 42.952V41.824ZM30.876 40.384H29.5V39.816H34.268V40.192C34.124 40.848 33.9747 41.448 33.82 41.992H35.436V42.328C35.2013 43.4213 34.6973 44.344 33.924 45.096C34.548 45.5547 35.26 45.9573 36.06 46.304L35.684 46.816C34.8147 46.4213 34.0787 45.9787 33.476 45.488C32.788 46.0373 31.9187 46.4907 30.868 46.848L30.532 46.312C31.5293 45.976 32.3533 45.5653 33.004 45.08C32.2573 44.3707 31.7053 43.5813 31.348 42.712C31.0813 44.4933 30.396 45.848 29.292 46.776L28.852 46.384C30.18 45.2907 30.8547 43.536 30.876 41.12V40.384ZM33.444 44.712C34.132 44.0827 34.596 43.3493 34.836 42.512H33.1C33.276 41.984 33.4547 41.2747 33.636 40.384H31.468V41.304L31.46 41.496C31.748 42.7493 32.4093 43.8213 33.444 44.712ZM39.46 40.064V45.96H38.9V45.424H37.716V46.152H37.156V40.064H39.46ZM37.716 44.888H38.9V42.96H37.716V44.888ZM37.716 42.424H38.9V40.592H37.716V42.424ZM40.612 42.448C41.1187 43.216 41.5 43.872 41.756 44.416L41.276 44.752C40.9827 44.128 40.604 43.4587 40.14 42.744L40.612 42.448ZM41.036 46.72L40.916 46.16C41.5347 46.1813 41.9773 46.192 42.244 46.192C42.4787 46.192 42.596 46.0667 42.596 45.816V41.488H39.828V40.936H42.596V39.528H43.18V40.936H44.164V41.488H43.18V45.96C43.18 46.4667 42.932 46.72 42.436 46.72H41.036ZM45.428 41.92L46.06 39.696L46.628 39.792L46.172 41.368H47.572C47.732 40.7387 47.86 40.0853 47.956 39.408L48.54 39.48C48.444 40.1093 48.3187 40.7387 48.164 41.368H51.908V41.92H48.012C47.9 42.2987 47.7987 42.6027 47.708 42.832H50.98V43.328C50.7613 44.0213 50.3267 44.6453 49.676 45.2C50.3213 45.584 51.1107 45.936 52.044 46.256L51.748 46.792C50.724 46.4133 49.876 46.0053 49.204 45.568C48.5587 46.0213 47.7453 46.44 46.764 46.824L46.46 46.288C47.3507 45.9627 48.0973 45.6027 48.7 45.208C48.0813 44.7333 47.6387 44.2133 47.372 43.648C46.7907 44.9067 46.0413 45.9093 45.124 46.656L44.828 46.128C45.9907 45.1093 46.852 43.7067 47.412 41.92H45.428ZM47.804 43.36C48.076 43.904 48.532 44.408 49.172 44.872C49.764 44.408 50.172 43.904 50.396 43.36H47.804ZM49.884 39.472C50.444 39.8987 50.9213 40.3387 51.316 40.792L50.908 41.2C50.5827 40.7893 50.1133 40.3387 49.5 39.848L49.884 39.472ZM59.524 39.784V44.208H58.94V40.336H56.54V44.208H55.972V39.784H59.524ZM58.516 46.672C58.0787 46.672 57.86 46.4507 57.86 46.008V44.176H58.436V45.888C58.436 46.0587 58.5187 46.144 58.684 46.144H59.244C59.372 46.144 59.4653 46.1013 59.524 46.016C59.588 45.9147 59.636 45.6133 59.668 45.112L60.204 45.28C60.156 45.9413 60.0627 46.344 59.924 46.488C59.7907 46.6107 59.5987 46.672 59.348 46.672H58.516ZM57.436 40.904H57.988V42.856C57.956 43.928 57.74 44.784 57.34 45.424C56.9507 46.0213 56.3107 46.488 55.42 46.824L55.108 46.336C55.9773 46 56.5827 45.568 56.924 45.04C57.2493 44.4693 57.42 43.7413 57.436 42.856V40.904ZM53.004 42.424H53.924V40.552H52.9V40H55.524V40.552H54.516V42.424H55.412V42.984H54.516V44.8C54.836 44.6933 55.1773 44.5653 55.54 44.416V44.968C54.7667 45.2827 53.9187 45.5493 52.996 45.768L52.86 45.216C53.212 45.152 53.5667 45.072 53.924 44.976V42.984H53.004V42.424Z" fill="#797979"/>
<path d="M11.332 13.732C10.972 14.252 10.568 14.768 10.12 15.28L9.868 14.416C11.116 12.88 12.016 11.124 12.568 9.148L13.348 9.508C13.028 10.532 12.64 11.476 12.184 12.34V20.212H11.332V13.732ZM13.144 11.248H16.324V9.184H17.176V11.248H20.452V12.088H17.92C18.488 14.088 19.488 15.852 20.92 17.38L20.356 18.088C18.884 16.304 17.864 14.304 17.296 12.088H17.176V16.9H19.036V17.728H17.176V20.2H16.324V17.728H14.488V16.9H16.324V12.088H16.192C15.584 14.584 14.54 16.624 13.06 18.208L12.616 17.476C13.984 16.084 14.968 14.288 15.568 12.088H13.144V11.248ZM26.32 11.548H27.82V9.208H28.672V11.548H29.908V12.376H28.672V12.988C29.152 13.516 29.644 14.116 30.148 14.788L29.656 15.52C29.224 14.752 28.896 14.192 28.672 13.84V20.14H27.82V14.272C27.428 15.48 26.94 16.56 26.356 17.512L25.984 16.564C26.84 15.332 27.448 13.936 27.808 12.376H26.32V11.548ZM31.672 12.7C31.224 13.172 30.748 13.588 30.244 13.948L29.776 13.216C31.208 12.184 32.304 10.852 33.064 9.22H33.856C34.504 10.732 35.612 12.056 37.18 13.192L36.712 13.924C36.184 13.54 35.72 13.144 35.32 12.736V13.468H31.672V12.7ZM35.26 12.676C34.5 11.892 33.9 11.024 33.46 10.072C32.94 11.08 32.352 11.948 31.696 12.676H35.26ZM30.052 19H34.204C34.7 17.712 35.132 16.136 35.5 14.272L36.328 14.488C36 16.128 35.576 17.632 35.056 19H36.928V19.84H30.052V19ZM31.396 14.596C31.724 15.572 32.016 16.736 32.272 18.088L31.516 18.292C31.284 17.116 30.996 15.968 30.652 14.848L31.396 14.596ZM33.244 14.164C33.556 15.132 33.832 16.248 34.072 17.512L33.28 17.716C33.08 16.596 32.82 15.492 32.5 14.404L33.244 14.164Z" fill="#9EA7FB"/>
</g>
<defs>
<filter id="filter0_d_0_1" x="59" y="9" width="41.8724" height="45.1145" filterUnits="userSpaceOnUse" color-interpolation-filters="sRGB">
<feFlood flood-opacity="0" result="BackgroundImageFix"/>
<feColorMatrix in="SourceAlpha" type="matrix" values="0 0 0 0 0 0 0 0 0 0 0 0 0 0 0 0 0 0 127 0" result="hardAlpha"/>
<feOffset dy="4"/>
<feGaussianBlur stdDeviation="2"/>
<feComposite in2="hardAlpha" operator="out"/>
<feColorMatrix type="matrix" values="0 0 0 0 0.620046 0 0 0 0 0.656375 0 0 0 0 0.983333 0 0 0 0.3 0"/>
<feBlend mode="normal" in2="BackgroundImageFix" result="effect1_dropShadow_0_1"/>
<feBlend mode="normal" in="SourceGraphic" in2="effect1_dropShadow_0_1" result="shape"/>
</filter>
<linearGradient id="paint0_linear_0_1" x1="97.5" y1="-6.61374e-06" x2="-35.5" y2="65.5" gradientUnits="userSpaceOnUse">
<stop stop-color="#E9EBFF"/>
<stop offset="1" stop-color="#E9EBFF" stop-opacity="0"/>
</linearGradient>
<clipPath id="clip0_0_1">
<rect width="375" height="812" fill="white" transform="translate(-148 -144)"/>
</clipPath>
</defs>
</svg>
