<svg width="100" height="55" viewBox="0 0 100 55" fill="none" xmlns="http://www.w3.org/2000/svg">
<rect width="100" height="55" fill="#F5F5F5"/>
<g clip-path="url(#clip0_0_1)">
<rect width="375" height="812" transform="translate(-254 -144)" fill="white"/>
<rect width="100" height="55" rx="4" fill="url(#paint0_linear_0_1)"/>
<rect x="4" y="6" width="39" height="17" rx="5" fill="white"/>
<path d="M15.856 19H20.944V19.816H15.016V9.748H20.788V10.564H15.856V19ZM16.804 11.92C17.444 12.696 18.016 13.44 18.52 14.152C18.904 13.232 19.204 12.24 19.42 11.176L20.176 11.32C19.896 12.664 19.52 13.86 19.048 14.908C19.664 15.812 20.2 16.664 20.656 17.464L20.056 18.064C19.592 17.2 19.128 16.416 18.664 15.712C18.144 16.68 17.54 17.508 16.852 18.196L16.312 17.536C17.024 16.8 17.636 15.94 18.148 14.956C17.548 14.108 16.912 13.272 16.24 12.448L16.804 11.92ZM13.12 10.54H10.06V9.748H13.984L13.408 14.68H14.308C14.308 17.408 14.184 18.988 13.936 19.42C13.688 19.836 13.16 20.044 12.352 20.044C12.056 20.044 11.744 20.032 11.416 20.008L11.188 19.24C11.66 19.288 11.988 19.312 12.172 19.312C12.796 19.312 13.176 19.128 13.312 18.76C13.432 18.376 13.492 17.28 13.492 15.472H10.252L10.816 11.344L11.62 11.392L11.14 14.68H12.58L13.12 10.54ZM12.856 17.32C11.992 17.584 11.008 17.8 9.904 17.968L9.796 17.14C10.932 16.996 11.952 16.796 12.856 16.54V17.32ZM27.448 11.104H31.156V9.22H32.044V11.104H35.728V15.58H32.044V18.4C33.18 18.288 34.28 18.148 35.344 17.98C35.064 17.388 34.8 16.864 34.552 16.408L35.308 16.108C35.94 17.22 36.496 18.428 36.976 19.732L36.172 20.068C36.012 19.628 35.844 19.192 35.668 18.76C33.588 19.12 30.572 19.42 26.62 19.66L26.476 18.748C28.372 18.668 29.932 18.576 31.156 18.472V15.58H27.448V11.104ZM34.9 14.764V11.92H32.044V14.764H34.9ZM31.156 14.764V11.92H28.276V14.764H31.156Z" fill="#DDCA64"/>
<path d="M11.788 29.096V30.608H11.244V29.608H5.756V30.608H5.212V29.096H8.236C8.13467 28.872 8.03067 28.6747 7.924 28.504L8.532 28.408C8.62267 28.6 8.71867 28.8293 8.82 29.096H11.788ZM6.108 30.272H8.316L8.332 30.128V29.8H8.86V30.128C8.86 30.16 8.85467 30.208 8.844 30.272H10.892V30.768H8.708L8.604 30.952C9.52133 31.1653 10.332 31.4107 11.036 31.688L10.732 32.144C9.93733 31.8027 9.116 31.5307 8.268 31.328C8.21467 31.3707 8.17733 31.4027 8.156 31.424C7.72933 31.7227 7.02 31.9573 6.028 32.128L5.74 31.672C6.70533 31.528 7.38 31.336 7.764 31.096C7.89733 31 8.012 30.8907 8.108 30.768H6.108V30.272ZM4.964 32.208H12.044V32.736H10.732V35.152C10.732 35.584 10.4973 35.8 10.028 35.8H9.22L9.1 35.256C9.38267 35.2827 9.628 35.296 9.836 35.296C10.06 35.296 10.172 35.2 10.172 35.008V32.736H4.964V32.208ZM6.14 33.248H9.092V35.056H6.14V33.248ZM8.556 34.56V33.744H6.676V34.56H8.556ZM14.428 30.512C14.108 31.2373 13.7 31.848 13.204 32.344L12.836 31.872C13.5933 31.0827 14.1027 30.0213 14.364 28.688L14.948 28.792C14.8627 29.2027 14.7587 29.5893 14.636 29.952H16.348V28.528H16.932V29.952H19.564V30.512H16.932V32.36H19.404V32.92H16.932V34.952H20.076V35.528H13.028V34.952H16.348V32.92H13.996V32.36H16.348V30.512H14.428ZM21.732 29.736H24.204V28.48H24.796V29.736H27.252V32.72H24.796V34.6C25.5533 34.5253 26.2867 34.432 26.996 34.32C26.8093 33.9253 26.6333 33.576 26.468 33.272L26.972 33.072C27.3933 33.8133 27.764 34.6187 28.084 35.488L27.548 35.712C27.4413 35.4187 27.3293 35.128 27.212 34.84C25.8253 35.08 23.8147 35.28 21.18 35.44L21.084 34.832C22.348 34.7787 23.388 34.7173 24.204 34.648V32.72H21.732V29.736ZM26.7 32.176V30.28H24.796V32.176H26.7ZM24.204 32.176V30.28H22.284V32.176H24.204ZM28.892 32.896H33.764V32.392H34.34V32.896H36.1V33.456H34.34V35.152C34.34 35.6 34.0973 35.824 33.612 35.824H32.588L32.46 35.256C32.8333 35.2827 33.1507 35.296 33.412 35.296C33.6467 35.296 33.764 35.2 33.764 35.008V33.456H28.892V32.896ZM34.892 28.776V30.68H30.308V31.24C30.308 31.4693 30.4227 31.584 30.652 31.584H34.932C35.0867 31.5787 35.196 31.5253 35.26 31.424C35.3133 31.3227 35.356 31.112 35.388 30.792L35.932 30.968C35.8947 31.3147 35.8413 31.5733 35.772 31.744C35.66 31.9787 35.436 32.104 35.1 32.12H30.444C29.9693 32.12 29.732 31.896 29.732 31.448V28.776H34.892ZM30.308 30.152H34.316V29.296H30.308V30.152ZM30.732 33.696C31.244 34.096 31.6947 34.5147 32.084 34.952L31.652 35.384C31.3427 34.9893 30.9 34.5573 30.324 34.088L30.732 33.696ZM41.66 30.24L41.54 30.704C41.7533 31.6373 42.02 32.4347 42.34 33.096C42.692 32.28 42.884 31.328 42.916 30.24H41.66ZM42.068 33.648C41.7587 33.056 41.492 32.3573 41.268 31.552C41.0973 31.968 40.9267 32.3173 40.756 32.6L40.388 32.152C40.8947 31.24 41.2387 30.008 41.42 28.456L41.948 28.552C41.9107 28.8507 41.852 29.2293 41.772 29.688H43.988V30.24H43.444C43.4067 31.5787 43.1453 32.7227 42.66 33.672C43.1027 34.392 43.612 34.9387 44.188 35.312L43.86 35.784C43.284 35.3893 42.788 34.8533 42.372 34.176C41.9453 34.8267 41.3907 35.3813 40.708 35.84L40.404 35.36C41.108 34.9227 41.6627 34.352 42.068 33.648ZM40.444 34.984C39.3667 35.2613 38.2253 35.4907 37.02 35.672L36.884 35.12C37.3693 35.056 37.9 34.9707 38.476 34.864V33.344H37.188V32.784H38.476V31.856H39.052V32.784H40.252V33.344H39.052V34.752C39.5693 34.64 40.0333 34.5253 40.444 34.408V34.984ZM36.98 28.816H40.428V29.36H38.684C38.364 30.144 38.068 30.736 37.796 31.136C38.4627 31.0507 39.0733 30.952 39.628 30.84C39.4467 30.5147 39.284 30.2347 39.14 30L39.58 29.72C40.0173 30.408 40.3587 31.0213 40.604 31.56L40.132 31.888C40.0573 31.7013 39.964 31.496 39.852 31.272C38.9987 31.448 38.0653 31.592 37.052 31.704L36.916 31.192C36.996 31.1813 37.0733 31.1627 37.148 31.136C37.3987 30.8693 37.7133 30.2773 38.092 29.36H36.98V28.816ZM51.756 29.176V30.688H51.18V29.72H45.828V30.696H45.252V29.176H48.204C48.0813 28.9147 47.964 28.696 47.852 28.52L48.468 28.424C48.5587 28.6053 48.6653 28.856 48.788 29.176H51.756ZM45.132 31.376H47.356C47.3667 31.2267 47.3773 30.9973 47.388 30.688V30.192H47.972V30.688C47.9613 30.9973 47.9507 31.2267 47.94 31.376H51.916V31.928H49.348V33.872C50.0093 33.424 50.5533 32.8933 50.98 32.28L51.404 32.6C50.86 33.3787 50.1747 34.024 49.348 34.536V34.776C49.348 35.0053 49.476 35.12 49.732 35.12H51.068C51.228 35.12 51.34 35.072 51.404 34.976C51.4787 34.8747 51.532 34.5413 51.564 33.976L52.1 34.144C52.052 34.8587 51.9507 35.2933 51.796 35.448C51.6627 35.5813 51.4573 35.648 51.18 35.648H49.564C49.0413 35.648 48.78 35.3973 48.78 34.896V34.864C48.332 35.088 47.836 35.2907 47.292 35.472L47.06 34.952C47.7107 34.744 48.284 34.5013 48.78 34.224V31.928H47.884C47.772 32.7493 47.5667 33.448 47.268 34.024C46.8413 34.7973 46.1453 35.4 45.18 35.832L44.868 35.344C45.8067 34.9013 46.4627 34.3227 46.836 33.608C47.0493 33.1387 47.204 32.5787 47.3 31.928H45.132V31.376ZM49.324 30.104C49.884 30.328 50.3853 30.5947 50.828 30.904L50.532 31.36C50.0413 31.008 49.5427 30.728 49.036 30.52L49.324 30.104ZM57.06 28.6C56.9693 29.0427 56.8707 29.4267 56.764 29.752H59.868C59.868 32.424 59.828 34.072 59.748 34.696C59.6627 35.4 59.2307 35.752 58.452 35.752C58.34 35.752 58.14 35.744 57.852 35.728L57.716 35.208C58.0573 35.2293 58.276 35.24 58.372 35.24C58.8627 35.24 59.1427 34.984 59.212 34.472C59.2653 34.0453 59.3 32.6587 59.316 30.312H58.772C58.596 31.656 58.3533 32.712 58.044 33.48C57.6707 34.3227 57.124 35.072 56.404 35.728L56.052 35.272C56.7133 34.6747 57.2147 34.0027 57.556 33.256C57.8653 32.5147 58.0973 31.5333 58.252 30.312H57.628C57.308 32.0507 56.7 33.3173 55.804 34.112L55.428 33.68C56.2493 32.9813 56.812 31.8587 57.116 30.312H56.564C56.3507 30.8187 56.108 31.24 55.836 31.576L55.412 31.216C55.924 30.576 56.292 29.656 56.516 28.456L57.06 28.6ZM53.62 30.696C53.524 31.128 53.4173 31.5173 53.3 31.864L52.796 31.72C53.0947 30.8827 53.2653 29.992 53.308 29.048L53.812 29.088C53.796 29.4453 53.764 29.7947 53.716 30.136H54.276V28.472H54.836V30.136H55.508V30.696H54.836V32.616C55.0547 32.5147 55.268 32.408 55.476 32.296V32.84C55.3373 32.9147 55.124 33.0213 54.836 33.16V35.8H54.276V33.4C53.8227 33.576 53.404 33.7253 53.02 33.848L52.884 33.288C53.364 33.176 53.828 33.032 54.276 32.856V30.696H53.62ZM7.356 45.728C6.66267 46.0267 5.86 46.2693 4.948 46.456L4.876 45.904C5.83067 45.728 6.65733 45.488 7.356 45.184V45.728ZM6.62 39.656C6.24667 40.7227 5.876 41.56 5.508 42.168C5.83333 42.12 6.15067 42.064 6.46 42L6.876 41.08L7.38 41.264C6.72933 42.6507 6.196 43.624 5.78 44.184C6.31867 44.0773 6.84133 43.9387 7.348 43.768V44.28C6.596 44.52 5.85733 44.6907 5.132 44.792L4.988 44.288C5.084 44.2453 5.16667 44.1947 5.236 44.136C5.508 43.8053 5.83333 43.2613 6.212 42.504C5.80667 42.584 5.39867 42.656 4.988 42.72L4.844 42.224C4.93467 42.1813 5.012 42.112 5.076 42.016C5.46 41.2853 5.79867 40.4293 6.092 39.448L6.62 39.656ZM9.524 40.64H8.228V42.872H9.524V40.64ZM9.524 43.392H8.228V45.712H9.524V43.392ZM10.052 45.712H11.34V43.392H10.052V45.712ZM10.052 42.872H11.34V40.64H10.052V42.872ZM11.34 46.24H8.228V46.76H7.7V40.104H11.884V46.76H11.34V46.24ZM12.948 39.984H14.868V39.44H15.46V39.984H17.564V39.432H18.156V39.984H20.06V40.504H18.156V41H17.564V40.504H15.46V41H14.868V40.504H12.948V39.984ZM19.644 41.32V46.816H19.1V46.472H13.924V46.816H13.388V41.32H19.644ZM13.924 45.96H19.1V41.832H13.924V45.96ZM14.452 43.408H16.244V42.824C15.796 42.856 15.316 42.872 14.804 42.872L14.668 42.464C16.0013 42.4587 17.1133 42.3413 18.004 42.112L18.244 42.528C17.8547 42.6293 17.3667 42.7147 16.78 42.784V43.408H18.604V43.888H16.78V44.096C17.4307 44.352 18.0867 44.656 18.748 45.008L18.436 45.488C17.7427 45.0453 17.1907 44.7227 16.78 44.52V45.744H16.244V44.248C15.7907 44.7653 15.244 45.216 14.604 45.6L14.324 45.112C14.996 44.792 15.588 44.384 16.1 43.888H14.452V43.408ZM22.476 41.352H25.108V41.824H22.476V41.352ZM22.692 42.336H24.924V43.968H22.692V42.336ZM24.388 43.52V42.784H23.236V43.52H24.388ZM27.812 40.184V40.712H25.924C25.956 41.2773 26.02 41.7387 26.116 42.096C26.1747 42.3573 26.2413 42.5813 26.316 42.768C26.62 42.2827 26.8627 41.7413 27.044 41.144L27.492 41.376C27.2467 42.1547 26.94 42.8 26.572 43.312L26.644 43.424C26.852 43.7067 27.044 43.848 27.22 43.848C27.364 43.848 27.516 43.5147 27.676 42.848L28.14 43.12C27.9 43.9627 27.612 44.384 27.276 44.384C26.9613 44.384 26.6547 44.2213 26.356 43.896C26.292 43.8213 26.2493 43.768 26.228 43.736C25.972 44.008 25.6947 44.2347 25.396 44.416L25.1 43.968C25.4147 43.7813 25.7 43.544 25.956 43.256C25.828 43.0053 25.716 42.712 25.62 42.376C25.4973 41.9387 25.4147 41.384 25.372 40.712H22.108V41.696C22.0867 42.7787 21.8173 43.6533 21.3 44.32L20.868 43.928C21.2947 43.3947 21.5213 42.6507 21.548 41.696V40.184H25.348C25.3373 40.024 25.332 39.7733 25.332 39.432H25.884C25.884 39.7733 25.8893 40.024 25.9 40.184H26.772C26.692 39.9867 26.5987 39.7787 26.492 39.56L27.004 39.472C27.1 39.6747 27.188 39.912 27.268 40.184H27.812ZM22.292 44.552C22.084 45.304 21.7853 45.9653 21.396 46.536L20.908 46.224C21.308 45.6747 21.5933 45.08 21.764 44.44L22.292 44.552ZM23.7 46.672C23.1667 46.672 22.9 46.3947 22.9 45.84V44.384H23.484V45.72C23.484 45.992 23.6147 46.128 23.876 46.128H25.372C25.564 46.128 25.7 46.088 25.78 46.008C25.8813 45.9067 25.9507 45.6293 25.988 45.176L26.532 45.36C26.4787 45.9787 26.364 46.36 26.188 46.504C26.0387 46.616 25.804 46.672 25.484 46.672H23.7ZM27.044 44.608C27.5293 45.1573 27.8973 45.632 28.148 46.032L27.692 46.36C27.4307 45.944 27.06 45.456 26.58 44.896L27.044 44.608ZM24.516 44.296C24.8787 44.6853 25.1667 45.04 25.38 45.36L24.94 45.664C24.7213 45.312 24.436 44.944 24.084 44.56L24.516 44.296ZM32.596 39.456H33.188V40.32H34.74V42.496C34.74 42.656 34.804 42.736 34.932 42.736H35.22C35.348 42.7253 35.436 42.6747 35.484 42.584C35.532 42.488 35.58 42.168 35.628 41.624L36.14 41.792C36.076 42.4373 35.996 42.8453 35.9 43.016C35.7933 43.1813 35.5987 43.264 35.316 43.264H34.82C34.3933 43.264 34.18 43.048 34.18 42.616V40.856H33.148C33.084 41.4267 32.9507 41.904 32.748 42.288C32.476 42.7627 32.036 43.1333 31.428 43.4L31.1 42.896C31.66 42.6453 32.052 42.3173 32.276 41.912C32.4147 41.608 32.508 41.256 32.556 40.856H31.428V40.32H32.596V39.456ZM29.052 43.904H32.22V43.224H32.812V43.904H35.972V44.432H33.356C33.9533 45.0933 34.8787 45.6133 36.132 45.992L35.86 46.544C34.436 46.0053 33.436 45.3013 32.86 44.432H32.812V46.784H32.22V44.432H32.172C31.676 45.2747 30.6973 46 29.236 46.608L28.908 46.072C30.268 45.592 31.196 45.0453 31.692 44.432H29.052V43.904ZM29.796 39.6C30.292 39.792 30.7507 40.024 31.172 40.296L30.868 40.768C30.4253 40.4693 29.9667 40.2293 29.492 40.048L29.796 39.6ZM29.324 40.68C29.7773 40.856 30.188 41.0667 30.556 41.312L30.252 41.768C29.852 41.496 29.4413 41.2827 29.02 41.128L29.324 40.68ZM31.244 41.944C30.684 42.6107 30.1027 43.1573 29.5 43.584L29.1 43.128C29.7453 42.6907 30.316 42.1893 30.812 41.624L31.244 41.944ZM37.844 41.848H40.212V41.352H40.788V41.848H43.124V42.36H40.788V43.112H44.036V43.616H42.508V44.392H43.692V44.912H42.508V46.136C42.508 46.5787 42.2707 46.8 41.796 46.8H40.636L40.516 46.256C40.9427 46.2827 41.3027 46.296 41.596 46.296C41.82 46.296 41.932 46.1973 41.932 46V44.912H37.428V44.392H41.932V43.616H36.956V43.112H40.212V42.36H37.844V41.848ZM38.708 45.136C39.172 45.568 39.524 45.944 39.764 46.264L39.316 46.576C39.06 46.2347 38.7027 45.8507 38.244 45.424L38.708 45.136ZM38.084 40.528C37.8813 40.912 37.6547 41.2587 37.404 41.568L36.908 41.256C37.3933 40.6747 37.7453 40.0453 37.964 39.368L38.516 39.488C38.4413 39.7173 38.3747 39.9013 38.316 40.04H40.356V40.528H38.956C39.1747 40.8053 39.3533 41.064 39.492 41.304L38.972 41.496C38.7747 41.1227 38.5693 40.8 38.356 40.528H38.084ZM41.356 40.512C41.2067 40.8107 41.036 41.088 40.844 41.344L40.364 41.048C40.7587 40.5253 41.0413 39.9627 41.212 39.36L41.756 39.472C41.692 39.664 41.628 39.848 41.564 40.024H43.884V40.512H42.436C42.6547 40.7893 42.828 41.0507 42.956 41.296L42.46 41.488C42.2627 41.1307 42.052 40.8053 41.828 40.512H41.356ZM49.972 46.752L49.828 46.216L50.708 46.232C51.012 46.232 51.164 46.056 51.164 45.704V40.488H48.06V39.928H51.748V45.856C51.748 46.4533 51.4413 46.752 50.828 46.752H49.972ZM45.252 40.792H45.836V46.808H45.252V40.792ZM47.044 41.944H49.924V44.952H47.044V41.944ZM49.34 44.4V42.496H47.628V44.4H49.34ZM46.444 39.4C46.8333 39.864 47.164 40.3467 47.436 40.848L46.924 41.112C46.636 40.584 46.2973 40.0907 45.908 39.632L46.444 39.4ZM58.38 46.128C59.0467 46.128 59.6467 46.1173 60.18 46.096L60.084 46.672H58.508C56.5933 46.672 55.396 46.568 54.916 46.36C54.5 46.184 54.124 45.8613 53.788 45.392C53.644 45.904 53.444 46.376 53.188 46.808L52.772 46.44C53.1987 45.7147 53.4333 44.896 53.476 43.984L53.988 44.048C53.972 44.336 53.9453 44.5893 53.908 44.808C54.116 45.1333 54.3453 45.3893 54.596 45.576V43.632H53.012V43.104H56.404V43.632H55.108V44.48H56.204V44.992H55.108V45.864C55.156 45.88 55.196 45.896 55.228 45.912C55.692 46.056 56.7427 46.128 58.38 46.128ZM53.372 39.776H56.1V42.568H53.372V39.776ZM55.54 42.088V41.408H53.932V42.088H55.54ZM53.932 40.96H55.54V40.256H53.932V40.96ZM56.516 39.784H59.972V40.312H58.532C58.5053 40.5467 58.4707 40.76 58.428 40.952H59.748V44.184H59.212V41.448H57.276V44.184H56.764V40.952H57.908C57.9507 40.7707 57.9853 40.5573 58.012 40.312H56.516V39.784ZM58.82 44.208C59.316 44.592 59.732 44.976 60.068 45.36L59.66 45.76C59.3507 45.376 58.9427 44.9813 58.436 44.576L58.82 44.208ZM57.98 41.824H58.508V42.952C58.492 43.704 58.3453 44.312 58.068 44.776C57.8013 45.192 57.3587 45.5227 56.74 45.768L56.428 45.272C56.9987 45.064 57.4013 44.7787 57.636 44.416C57.8493 44.032 57.964 43.544 57.98 42.952V41.824Z" fill="#797979"/>
<g filter="url(#filter0_d_0_1)">
<rect x="86.0207" y="8" width="14" height="39" rx="7" transform="rotate(36.1764 86.0207 8)" fill="#FFE6A6"/>
<path d="M75.1006 22.9333L86.4014 31.1971L78.4327 42.0943C76.1507 45.215 71.771 45.8948 68.6504 43.6128C65.5298 41.3308 64.8499 36.9511 67.1319 33.8305L75.1006 22.9333Z" fill="#FFFAC8"/>
</g>
</g>
<defs>
<filter id="filter0_d_0_1" x="61.7819" y="10.7819" width="36.7578" height="42.181" filterUnits="userSpaceOnUse" color-interpolation-filters="sRGB">
<feFlood flood-opacity="0" result="BackgroundImageFix"/>
<feColorMatrix in="SourceAlpha" type="matrix" values="0 0 0 0 0 0 0 0 0 0 0 0 0 0 0 0 0 0 127 0" result="hardAlpha"/>
<feOffset dy="4"/>
<feGaussianBlur stdDeviation="2"/>
<feComposite in2="hardAlpha" operator="out"/>
<feColorMatrix type="matrix" values="0 0 0 0 0.883333 0 0 0 0 0.760255 0 0 0 0 0.323889 0 0 0 0.3 0"/>
<feBlend mode="normal" in2="BackgroundImageFix" result="effect1_dropShadow_0_1"/>
<feBlend mode="normal" in="SourceGraphic" in2="effect1_dropShadow_0_1" result="shape"/>
</filter>
<linearGradient id="paint0_linear_0_1" x1="114.5" y1="4.01407e-06" x2="-11.5" y2="47" gradientUnits="userSpaceOnUse">
<stop stop-color="#F6EEBF"/>
<stop offset="0.872676" stop-color="#F6EEBF" stop-opacity="0.2"/>
</linearGradient>
<clipPath id="clip0_0_1">
<rect width="375" height="812" fill="white" transform="translate(-254 -144)"/>
</clipPath>
</defs>
</svg>
