<svg width="100" height="55" viewBox="0 0 100 55" fill="none" xmlns="http://www.w3.org/2000/svg">
<rect width="100" height="55" fill="#F5F5F5"/>
<g clip-path="url(#clip0_0_1)">
<rect width="375" height="812" transform="translate(-254 -205)" fill="white"/>
<rect width="100" height="55" rx="4" fill="url(#paint0_linear_0_1)"/>
<rect x="4" y="6" width="39" height="17" rx="5" fill="white"/>
<path d="M11.384 31.184V35.784H10.832V35.4H7.848V35.784H7.296V31.184H11.384ZM7.848 34.872H9.08V33.576H7.848V34.872ZM9.608 34.872H10.832V33.576H9.608V34.872ZM7.848 33.056H9.08V31.72H7.848V33.056ZM9.608 31.72V33.056H10.832V31.72H9.608ZM8.088 28.464H8.632V29.392H10.024V28.464H10.568V29.392H11.632V29.928H10.568V30.808H10.024V29.928H8.632V30.8H8.088V29.928H7.024V29.392H8.088V28.464ZM7.056 28.848C6.74667 29.3653 6.43467 29.7893 6.12 30.12C6.14133 30.1627 6.192 30.2773 6.272 30.464C6.50667 31.104 6.63467 32.0053 6.656 33.168C6.656 34.4533 6.496 35.232 6.176 35.504C5.98933 35.6427 5.728 35.712 5.392 35.712L4.848 35.704L4.68 35.168C4.94667 35.1893 5.14133 35.2 5.264 35.2C5.536 35.2 5.71467 35.152 5.8 35.056C6.00267 34.8427 6.104 34.2027 6.104 33.136C6.104 32.9067 6.09333 32.616 6.072 32.264C5.66667 32.8507 5.2 33.336 4.672 33.72L4.344 33.24C5.04267 32.7653 5.58667 32.1867 5.976 31.504C5.93333 31.2267 5.86667 30.9627 5.776 30.712L5.696 30.528C5.408 30.768 5.06667 31.016 4.672 31.272L4.36 30.776C4.744 30.5787 5.10133 30.3253 5.432 30.016C5.19733 29.648 4.912 29.3147 4.576 29.016L5.024 28.664C5.32267 28.9627 5.58933 29.28 5.824 29.616C6.10667 29.2907 6.36 28.936 6.584 28.552L7.056 28.848ZM14.696 29.176V33.992H13.24V34.584H12.68V29.176H14.696ZM13.24 33.464H14.144V29.704H13.24V33.464ZM16.896 28.544H17.472V31.296H19.408V31.848H17.984C18.304 32.9253 18.88 33.8827 19.712 34.72L19.312 35.208C18.4747 34.2053 17.8907 33.0853 17.56 31.848H17.472V35.744H16.896V31.848H16.8C16.448 33.2347 15.856 34.368 15.024 35.248L14.712 34.728C15.4853 33.9707 16.0427 33.0107 16.384 31.848H15.072V31.296H16.896V28.544ZM19.312 29.064C19.088 29.6933 18.7947 30.3067 18.432 30.904L17.944 30.648C18.3067 30.024 18.592 29.4187 18.8 28.832L19.312 29.064ZM15.624 28.992C15.944 29.5147 16.2213 30.0693 16.456 30.656L15.984 30.896C15.7333 30.272 15.4453 29.7093 15.12 29.208L15.624 28.992ZM22.952 34.696C22.248 35.016 21.4267 35.2827 20.488 35.496L20.416 34.944C21.392 34.7413 22.2373 34.4747 22.952 34.144V34.696ZM22.192 28.648C21.808 29.6827 21.424 30.5093 21.04 31.128C21.3653 31.0853 21.672 31.0373 21.96 30.984L22.392 30.064L22.896 30.248C22.24 31.6133 21.6907 32.592 21.248 33.184C21.7813 33.072 22.3227 32.912 22.872 32.704V33.216C22.0773 33.5093 21.3227 33.7067 20.608 33.808L20.448 33.288C20.5493 33.2507 20.6373 33.1973 20.712 33.128C20.9787 32.8133 21.3093 32.2693 21.704 31.496C21.416 31.5493 21.024 31.616 20.528 31.696L20.384 31.168C20.48 31.1253 20.56 31.0533 20.624 30.952C21.0133 30.232 21.3547 29.3947 21.648 28.44L22.192 28.648ZM25 31.32H23.936V32.72H25V31.32ZM25.512 32.72H26.6V31.32H25.512V32.72ZM27.144 30.792V33.24H23.936V34.776C23.936 34.9947 24.0533 35.1067 24.288 35.112H26.392C26.632 35.096 26.8 35.008 26.896 34.848C26.9653 34.6987 27.024 34.36 27.072 33.832L27.608 34C27.5547 34.5067 27.4853 34.8773 27.4 35.112C27.2667 35.448 26.9867 35.624 26.56 35.64H24.08C23.6213 35.64 23.392 35.416 23.392 34.968V31.128L23.184 31.336L22.84 30.92C23.5013 30.2907 24.0373 29.4773 24.448 28.48L25 28.6C24.888 28.8613 24.7893 29.0773 24.704 29.248H26.576V29.672C26.3413 30.0987 26.0987 30.472 25.848 30.792H27.144ZM25.2 30.792C25.4613 30.4827 25.704 30.1387 25.928 29.76H24.424C24.2053 30.128 23.96 30.472 23.688 30.792H25.2ZM28.416 29.176H31.736C31.6347 28.952 31.5227 28.7413 31.4 28.544L32.064 28.44C32.16 28.6267 32.2667 28.872 32.384 29.176H35.6V29.72H33.72C34.4453 30.296 35.0053 30.8053 35.4 31.248L34.92 31.584C34.7333 31.36 34.5333 31.1467 34.32 30.944C33.104 31.0453 31.3813 31.1387 29.152 31.224L29.024 30.72C29.12 30.704 29.2133 30.6773 29.304 30.64C29.6667 30.416 30.0773 30.1093 30.536 29.72H28.416V29.176ZM31.256 29.72C30.7867 30.1573 30.36 30.4933 29.976 30.728C31.448 30.68 32.7467 30.6107 33.872 30.52C33.664 30.3227 33.456 30.1413 33.248 29.976L33.648 29.72H31.256ZM30.192 33.344V33.976H33.832V33.344H30.192ZM33.832 32.848V32.168H30.192V32.848H33.832ZM30.192 34.472V35.8H29.616V31.672H34.416V35.04C34.416 35.536 34.16 35.784 33.648 35.784H32.832L32.68 35.224L33.456 35.248C33.7067 35.248 33.832 35.1387 33.832 34.92V34.472H30.192ZM36.44 28.944H43.576V29.504H42.52V34.944C42.52 35.4773 42.264 35.744 41.752 35.744H40.416L40.288 35.184C40.8747 35.2053 41.296 35.216 41.552 35.216C41.8133 35.216 41.944 35.0773 41.944 34.8V29.504H36.44V28.944ZM40.48 30.728V33.664H37.928V34.368H37.368V30.728H40.48ZM37.928 33.136H39.928V31.248H37.928V33.136ZM47.016 29.336C47.7467 30.1787 48.304 30.912 48.688 31.536L48.2 31.872C47.7893 31.2 47.2347 30.4533 46.536 29.632L47.016 29.336ZM49.784 33.248C49.2613 34.224 48.424 35.0533 47.272 35.736L46.888 35.264C48.2267 34.4853 49.1093 33.5067 49.536 32.328C49.856 31.336 50.024 30.072 50.04 28.536H50.632C50.632 30.0347 50.4693 31.312 50.144 32.368C50.1227 32.4427 50.0853 32.5493 50.032 32.688C50.6827 33.5307 51.232 34.368 51.68 35.2L51.24 35.64C50.872 34.8827 50.3867 34.0853 49.784 33.248ZM44.84 34.392C44.984 34.28 45.056 34.1333 45.056 33.952V28.744H45.648V34.088C46.24 33.8587 46.8587 33.552 47.504 33.168L47.664 33.728C46.8267 34.2027 45.9493 34.6053 45.032 34.936L44.84 34.392ZM55.48 30.776H57.064V31.272H55.48V30.776ZM55.528 31.912H57.08V34.272H55.528V31.912ZM56.648 33.84V32.344H55.96V33.84H56.648ZM59.36 30.976C59.12 32.096 58.7867 33.0427 58.36 33.816C58.424 34.0827 58.496 34.3173 58.576 34.52C58.752 34.9413 58.912 35.16 59.056 35.176C59.1627 35.1653 59.224 34.6853 59.24 33.736L59.712 33.952C59.7013 35.1413 59.496 35.736 59.096 35.736C58.8187 35.736 58.56 35.5147 58.32 35.072C58.2133 34.8907 58.1147 34.6507 58.024 34.352C57.6027 34.9493 57.1227 35.4107 56.584 35.736L56.24 35.296C56.8693 34.9333 57.4027 34.3947 57.84 33.68C57.776 33.44 57.7067 33.0987 57.632 32.656C57.4987 31.8613 57.408 31.0027 57.36 30.08H55.08V32.304C55.048 33.7547 54.7413 34.9147 54.16 35.784L53.736 35.408C54.2587 34.6667 54.5333 33.632 54.56 32.304V29.544H57.328C57.3173 29.304 57.312 28.944 57.312 28.464H57.848C57.848 28.8213 57.856 29.1813 57.872 29.544H58.688C58.56 29.256 58.416 28.992 58.256 28.752L58.728 28.672C58.8667 28.9173 59.0027 29.208 59.136 29.544H59.52V30.08H57.896C57.928 30.816 57.9867 31.5227 58.072 32.2C58.104 32.4933 58.144 32.7627 58.192 33.008C58.4907 32.336 58.7173 31.5893 58.872 30.768L59.36 30.976ZM52.864 28.792C53.3653 29.4587 53.7493 30.048 54.016 30.56L53.56 30.88C53.256 30.3093 52.8667 29.712 52.392 29.088L52.864 28.792ZM54.128 32.264C53.776 33.4053 53.3653 34.5173 52.896 35.6L52.36 35.36C52.84 34.2987 53.264 33.2 53.632 32.064L54.128 32.264ZM6.608 40.624C6.18667 41.8933 5.63467 42.8613 4.952 43.528L4.464 43.112C5.168 42.44 5.696 41.5387 6.048 40.408L6.608 40.624ZM10.448 43.208C9.52 45.064 7.67467 46.264 4.912 46.808L4.576 46.256C7.27467 45.744 9.064 44.624 9.944 42.896L10.448 43.208ZM7.704 39.488H8.296V44.104H7.704V39.488ZM9.672 40.28C10.4347 41.1333 11.12 42.0907 11.728 43.152L11.184 43.432C10.576 42.3387 9.89867 41.3653 9.152 40.512L9.672 40.28ZM13.248 39.928H15.704V39.424H16.296V39.928H18.768V41.48H16.296V42.016H18.992V43.712H16.296V44.176H15.704V43.712H13.016V42.016H15.704V41.48H13.248V39.928ZM18.216 41.024V40.392H16.296V41.024H18.216ZM15.704 41.024V40.392H13.8V41.024H15.704ZM18.432 43.216V42.496H16.296V43.216H18.432ZM15.704 43.216V42.496H13.576V43.216H15.704ZM13.712 44.584C13.52 45.2987 13.256 45.912 12.92 46.424L12.424 46.112C12.76 45.6107 13 45.0613 13.144 44.464L13.712 44.584ZM15.104 46.696C14.576 46.696 14.312 46.424 14.312 45.88V44.432H14.904V45.76C14.904 46.0213 15.0293 46.152 15.28 46.152H17.008C17.1733 46.152 17.2987 46.1147 17.384 46.04C17.4853 45.9493 17.552 45.6853 17.584 45.248L18.128 45.424C18.0747 46.0213 17.9627 46.3893 17.792 46.528C17.648 46.64 17.4213 46.696 17.112 46.696H15.104ZM16.04 44.368C16.408 44.752 16.688 45.088 16.88 45.376L16.4 45.712C16.1813 45.3813 15.8987 45.032 15.552 44.664L16.04 44.368ZM18.448 44.352C18.944 44.9547 19.3333 45.5067 19.616 46.008L19.136 46.336C18.848 45.824 18.456 45.264 17.96 44.656L18.448 44.352ZM25 44.184C24.7707 44.7333 24.4107 45.192 23.92 45.56L23.576 45.144C24.0933 44.744 24.44 44.24 24.616 43.632L24.688 43.32H23.304V46.776H22.76V42.792H24.76C24.7867 42.5573 24.8053 42.2747 24.816 41.944H22.552V41.416H27.432V41.944H25.344C25.3387 42.2427 25.3227 42.5253 25.296 42.792H27.208V45.944C27.208 46.4667 26.9707 46.728 26.496 46.728H25.672L25.528 46.184L26.304 46.208C26.544 46.208 26.664 46.08 26.664 45.824V43.32H25.224L25.144 43.72C25.6027 44.088 26.016 44.5067 26.384 44.976L26.072 45.456C25.7147 44.944 25.3573 44.52 25 44.184ZM21.672 42.792V40.08H24.352C24.2667 39.8613 24.1707 39.6613 24.064 39.48L24.648 39.384C24.744 39.592 24.84 39.824 24.936 40.08H27.488V40.624H22.232V42.688C22.2 44.3733 21.856 45.7253 21.2 46.744L20.768 46.368C21.2427 45.6427 21.528 44.6933 21.624 43.52C21.2773 43.808 20.9013 44.0693 20.496 44.304L20.336 43.752C20.8053 43.512 21.248 43.2267 21.664 42.896L21.672 42.792ZM20.832 40.696C21.1093 41.1867 21.3413 41.696 21.528 42.224L21.032 42.424C20.8187 41.832 20.5867 41.3253 20.336 40.904L20.832 40.696ZM31.232 40.848V46.304H30.672V45.848H29.216V46.536H28.656V40.848H29.4C29.5547 40.4107 29.6693 39.9467 29.744 39.456L30.32 39.536C30.2187 40.0427 30.0933 40.48 29.944 40.848H31.232ZM29.216 45.312H30.672V43.56H29.216V45.312ZM29.216 43.04H30.672V41.392H29.216V43.04ZM32.624 42.704C33.1787 43.3387 33.616 43.92 33.936 44.448L33.48 44.768C33.1547 44.24 32.7147 43.648 32.16 42.992L32.624 42.704ZM35.368 40.856C35.368 43.5173 35.328 45.16 35.248 45.784C35.168 46.3973 34.7947 46.704 34.128 46.704L33.312 46.672L33.176 46.144C33.512 46.16 33.8027 46.168 34.048 46.168C34.4213 46.168 34.64 45.9627 34.704 45.552C34.752 45.104 34.784 43.7253 34.8 41.416H32.6C32.3707 41.928 32.104 42.384 31.8 42.784L31.456 42.328C32.0107 41.5547 32.392 40.5947 32.6 39.448L33.168 39.52C33.0613 40.0373 32.944 40.4827 32.816 40.856H35.368ZM36.408 46.4C37 45.8133 37.408 45.1973 37.632 44.552C37.8187 43.976 37.912 43.2213 37.912 42.288V39.808H41.648V45.768C41.648 45.9707 41.7493 46.072 41.952 46.072H42.568C42.6853 46.072 42.7867 46.0507 42.872 46.008C42.952 45.96 43.0027 45.8773 43.024 45.76C43.0667 45.5573 43.088 45.0373 43.088 44.2L43.624 44.36C43.624 44.968 43.6027 45.448 43.56 45.8C43.5227 46.12 43.4293 46.336 43.28 46.448C43.136 46.5493 42.92 46.6 42.632 46.6H41.952C41.36 46.6 41.064 46.3387 41.064 45.816V40.368H38.48V42.288C38.48 43.2853 38.368 44.1173 38.144 44.784C37.904 45.488 37.472 46.16 36.848 46.8L36.408 46.4ZM44.56 40.136H47.712C47.5893 39.8747 47.4667 39.6533 47.344 39.472L47.928 39.376C48.0613 39.6107 48.1813 39.864 48.288 40.136H51.44V40.68H48.096C47.8667 41.1333 47.6053 41.5067 47.312 41.8L48.36 41.704L48.92 40.976L49.432 41.184C48.6747 42.1493 48 42.8773 47.408 43.368C47.92 43.304 48.416 43.232 48.896 43.152C48.768 42.8747 48.6773 42.6827 48.624 42.576L49.112 42.416C49.384 42.8907 49.6133 43.3867 49.8 43.904L49.28 44.136C49.248 44.0347 49.1813 43.8533 49.08 43.592C48.8293 43.64 48.568 43.68 48.296 43.712V44.648H51.576V45.2H48.296V46.832H47.704V45.2H44.44V44.648H47.704V43.784C47.4213 43.816 47.048 43.8507 46.584 43.888L46.472 43.384L46.68 43.336C47.0267 43.1387 47.4507 42.7573 47.952 42.192L46.608 42.296L46.496 41.832C46.912 41.5813 47.248 41.1973 47.504 40.68H44.56V40.136ZM46.328 42.864C45.928 43.36 45.4907 43.7813 45.016 44.128L44.632 43.696C45.1013 43.3653 45.5227 42.9813 45.896 42.544L46.328 42.864ZM45.104 40.952C45.552 41.272 45.9307 41.5947 46.24 41.92L45.84 42.32C45.5787 42.016 45.2 41.688 44.704 41.336L45.104 40.952ZM50.12 42.544C50.6107 42.928 51.0267 43.3173 51.368 43.712L50.952 44.128C50.6533 43.728 50.2533 43.3173 49.752 42.896L50.12 42.544ZM51.192 41.256C50.84 41.672 50.464 42.0267 50.064 42.32L49.704 41.904C50.0773 41.632 50.424 41.3067 50.744 40.928L51.192 41.256Z" fill="#797979"/>
<path d="M13.828 18.544C12.772 19.024 11.54 19.424 10.132 19.744L10.024 18.916C11.488 18.612 12.756 18.212 13.828 17.716V18.544ZM12.688 9.472C12.112 11.024 11.536 12.264 10.96 13.192C11.448 13.128 11.908 13.056 12.34 12.976L12.988 11.596L13.744 11.872C12.76 13.92 11.936 15.388 11.272 16.276C12.072 16.108 12.884 15.868 13.708 15.556V16.324C12.516 16.764 11.384 17.06 10.312 17.212L10.072 16.432C10.224 16.376 10.356 16.296 10.468 16.192C10.868 15.72 11.364 14.904 11.956 13.744C11.524 13.824 10.936 13.924 10.192 14.044L9.976 13.252C10.12 13.188 10.24 13.08 10.336 12.928C10.92 11.848 11.432 10.592 11.872 9.16L12.688 9.472ZM16.9 13.48H15.304V15.58H16.9V13.48ZM17.668 15.58H19.3V13.48H17.668V15.58ZM20.116 12.688V16.36H15.304V18.664C15.304 18.992 15.48 19.16 15.832 19.168H18.988C19.348 19.144 19.6 19.012 19.744 18.772C19.848 18.548 19.936 18.04 20.008 17.248L20.812 17.5C20.732 18.26 20.628 18.816 20.5 19.168C20.3 19.672 19.88 19.936 19.24 19.96H15.52C14.832 19.96 14.488 19.624 14.488 18.952V13.192L14.176 13.504L13.66 12.88C14.652 11.936 15.456 10.716 16.072 9.22L16.9 9.4C16.732 9.792 16.584 10.116 16.456 10.372H19.264V11.008C18.912 11.648 18.548 12.208 18.172 12.688H20.116ZM17.2 12.688C17.592 12.224 17.956 11.708 18.292 11.14H16.036C15.708 11.692 15.34 12.208 14.932 12.688H17.2ZM26.224 10.264H31.204C31.052 9.928 30.884 9.612 30.7 9.316L31.696 9.16C31.84 9.44 32 9.808 32.176 10.264H37V11.08H34.18C35.268 11.944 36.108 12.708 36.7 13.372L35.98 13.876C35.7 13.54 35.4 13.22 35.08 12.916C33.256 13.068 30.672 13.208 27.328 13.336L27.136 12.58C27.28 12.556 27.42 12.516 27.556 12.46C28.1 12.124 28.716 11.664 29.404 11.08H26.224V10.264ZM30.484 11.08C29.78 11.736 29.14 12.24 28.564 12.592C30.772 12.52 32.72 12.416 34.408 12.28C34.096 11.984 33.784 11.712 33.472 11.464L34.072 11.08H30.484ZM28.888 16.516V17.464H34.348V16.516H28.888ZM34.348 15.772V14.752H28.888V15.772H34.348ZM28.888 18.208V20.2H28.024V14.008H35.224V19.06C35.224 19.804 34.84 20.176 34.072 20.176H32.848L32.62 19.336L33.784 19.372C34.16 19.372 34.348 19.208 34.348 18.88V18.208H28.888Z" fill="#CE92CC"/>
<g filter="url(#filter0_d_0_1)">
<rect x="85" y="10" width="31" height="7" transform="rotate(90 85 10)" fill="#F9D4F7"/>
<rect x="66" y="22" width="31" height="7" fill="#E8BBF8"/>
</g>
</g>
<defs>
<filter id="filter0_d_0_1" x="62" y="10" width="39" height="39" filterUnits="userSpaceOnUse" color-interpolation-filters="sRGB">
<feFlood flood-opacity="0" result="BackgroundImageFix"/>
<feColorMatrix in="SourceAlpha" type="matrix" values="0 0 0 0 0 0 0 0 0 0 0 0 0 0 0 0 0 0 127 0" result="hardAlpha"/>
<feOffset dy="4"/>
<feGaussianBlur stdDeviation="2"/>
<feComposite in2="hardAlpha" operator="out"/>
<feColorMatrix type="matrix" values="0 0 0 0 0.864233 0 0 0 0 0.704497 0 0 0 0 0.904167 0 0 0 1 0"/>
<feBlend mode="normal" in2="BackgroundImageFix" result="effect1_dropShadow_0_1"/>
<feBlend mode="normal" in="SourceGraphic" in2="effect1_dropShadow_0_1" result="shape"/>
</filter>
<linearGradient id="paint0_linear_0_1" x1="102.5" y1="-1.58772e-06" x2="-35" y2="73" gradientUnits="userSpaceOnUse">
<stop stop-color="#F9E5FA"/>
<stop offset="1" stop-color="#F9E5FA" stop-opacity="0"/>
</linearGradient>
<clipPath id="clip0_0_1">
<rect width="375" height="812" fill="white" transform="translate(-254 -205)"/>
</clipPath>
</defs>
</svg>
